#!OML:ASF H:\BreakDance\Project 1\Capture day 1\Session 1\Male.ASF
:FULLY-SPECIFIED
:DEGREES
125
root 17.2522 15.9963 0.405487 -221.244 -88.3665 225.136
lowerback -9.59752 -0.301693 0.653951
upperback 2.19162 -0.489203 0.0551921
thorax 7.70449 -0.209975 -0.388858
lowerneck -4.34279 1.00289 -3.68206
upperneck 12.2441 1.44186 0.785907
head 4.82633 0.51598 1.00118
rclavicle 5.25537e-015 -5.86415e-015
rhumerus -29.1452 3.95916 -86.2035
rradius 43.0303
rwrist 4.97181
rhand -32.594 -38.9261
rfingers 7.12502
rthumb -5.8222 -68.8261
lclavicle 5.25537e-015 -5.86415e-015
lhumerus -29.1124 3.18771 80.821
lradius 44.1684
lwrist -12.7866
lhand -40.9455 -40.2362
lfingers 7.12502
lthumb -13.8791 -10.7194
rfemur -18.9891 8.55886 11.7061
rtibia 42.0267
rfoot -30.2999 -22.4901
rtoes -3.90987
lfemur -18.2562 -2.83405 -8.38344
ltibia 41.21
lfoot -33.5262 22.6797
ltoes -29.2016
126
root 17.2544 15.9963 0.405765 -222.751 -88.304 226.667
lowerback -9.55287 -0.285406 0.733822
upperback 2.16094 -0.477222 0.060247
thorax 7.64547 -0.200942 -0.42614
lowerneck -4.34529 0.990379 -3.65779
upperneck 12.2756 1.42113 0.796018
head 4.83908 0.50671 0.999514
rclavicle 3.40419e-015 -5.86415e-015
rhumerus -29.1364 3.9393 -86.2193
rradius 43.0096
rwrist 5.03618
rhand -32.4697 -38.9677
rfingers 7.12502
rthumb -5.70222 -68.871
lclavicle 3.40419e-015 -5.86415e-015
lhumerus -29.1357 3.1769 80.7835
lradius 44.1887
lwrist -12.7254
lhand -40.9794 -40.1919
lfingers 7.12502
lthumb -13.9117 -10.6773
rfemur -19.0169 8.72063 11.7957
rtibia 42.0127
rfoot -30.3254 -22.6243
rtoes -3.84776
lfemur -18.3025 -2.77616 -8.29268
ltibia 41.2367
lfoot -33.5129 22.6592
ltoes -29.2562
127
root 17.2566 15.9962 0.406095 -224.332 -88.2439 228.272
lowerback -9.51864 -0.269416 0.812167
upperback 2.13788 -0.465765 0.0688597
thorax 7.60071 -0.192294 -0.459022
lowerneck -4.3445 0.97586 -3.63856
upperneck 12.2881 1.39744 0.814136
head 4.84416 0.496662 1.00112
rclavicle -2.37299e-015 3.08116e-015
rhumerus -29.1174 3.90714 -86.2218
rradius 43.0003
rwrist 5.13918
rhand -32.2749 -39.001
rfingers 7.12502
rthumb -5.51411 -68.9092
lclavicle -2.37299e-015 3.08116e-015
lhumerus -29.138 3.16311 80.7577
lradius 44.2013
lwrist -12.6697
lhand -40.9663 -40.1848
lfingers 7.12502
lthumb -13.8992 -10.6693
rfemur -19.0461 8.86844 11.8852
rtibia 41.9984
rfoot -30.366 -22.7443
rtoes -3.74966
lfemur -18.353 -2.72307 -8.20058
ltibia 41.2632
lfoot -33.4953 22.6526
ltoes -29.3323
128
root 17.2587 15.9961 0.40643 -225.687 -88.1874 229.649
lowerback -9.49452 -0.254058 0.8826
upperback 2.12146 -0.454289 0.0779889
thorax 7.56898 -0.18396 -0.487013
lowerneck -4.34188 0.96226 -3.62113
upperneck 12.2859 1.3749 0.836368
head 4.84336 0.48769 1.00436
rclavicle 1.26725e-015 3.57812e-015
rhumerus -29.0975 3.87603 -86.2203
rradius 43.0052
rwrist 5.22718
rhand -32.1033 -39.0483
rfingers 7.12502
rthumb -5.34844 -68.9608
lclavicle 1.26725e-015 3.57812e-015
lhumerus -29.128 3.14112 80.7411
lradius 44.2085
lwrist -12.6178
lhand -40.919 -40.2019
lfingers 7.12502
lthumb -13.8536 -10.6833
rfemur -19.0742 8.98841 11.9664
rtibia 41.9859
rfoot -30.4117 -22.8343
rtoes -3.65101
lfemur -18.3999 -2.68104 -8.11634
ltibia 41.2856
lfoot -33.4766 22.6561
ltoes -29.3941
129
root 17.2603 15.9963 0.406752 -226.396 -88.1416 230.374
lowerback -9.47298 -0.24074 0.931688
upperback 2.10673 -0.44263 0.0835728
thorax 7.54071 -0.176405 -0.506729
lowerneck -4.33459 0.954826 -3.60182
upperneck 12.2839 1.36079 0.853867
head 4.84144 0.482642 1.00604
rclavicle 1.98785e-016 3.97569e-015
rhumerus -29.0868 3.86178 -86.2254
rradius 43.0177
rwrist 5.23974
rhand -32.0508 -39.1034
rfingers 7.12502
rthumb -5.29783 -69.0172
lclavicle 1.98785e-016 3.97569e-015
lhumerus -29.1271 3.10834 80.7297
lradius 44.2178
lwrist -12.5653
lhand -40.8747 -40.2131
lfingers 7.12502
lthumb -13.8108 -10.6916
rfemur -19.0976 9.07316 12.0234
rtibia 41.9771
rfoot -30.4467 -22.8887
rtoes -3.60215
lfemur -18.4329 -2.65642 -8.05751
ltibia 41.3011
lfoot -33.4638 22.6568
ltoes -29.3817
130
root 17.2613 15.9967 0.407189 -226.377 -88.1106 230.364
lowerback -9.45406 -0.230431 0.95737
upperback 2.09283 -0.43167 0.0832204
thorax 7.51494 -0.170084 -0.51966
lowerneck -4.31656 0.955286 -3.5851
upperneck 12.2861 1.35722 0.867822
head 4.8386 0.482261 1.00743
rclavicle 3.72721e-017 4.77083e-015
rhumerus -29.0796 3.86574 -86.2389
rradius 43.0253
rwrist 5.16499
rhand -32.1253 -39.1206
rfingers 7.12502
rthumb -5.36975 -69.0326
lclavicle 3.72721e-017 4.77083e-015
lhumerus -29.1424 3.073 80.7188
lradius 44.2322
lwrist -12.5158
lhand -40.8379 -40.1972
lfingers 7.12502
lthumb -13.7754 -10.6732
rfemur -19.1163 9.11049 12.0482
rtibia 41.9736
rfoot -30.4505 -22.9078
rtoes -3.64275
lfemur -18.4482 -2.6532 -8.03182
ltibia 41.3081
lfoot -33.4603 22.6488
ltoes -29.275
131
root 17.2617 15.9969 0.407669 -225.794 -88.0906 229.781
lowerback -9.44188 -0.223685 0.960752
upperback 2.08347 -0.422623 0.0800614
thorax 7.49802 -0.16556 -0.523356
lowerneck -4.29718 0.960295 -3.5662
upperneck 12.2975 1.36049 0.871403
head 4.83877 0.484524 1.00531
rclavicle 5.46658e-016 3.77691e-015
rhumerus -29.0652 3.88051 -86.2552
rradius 43.0238
rwrist 5.03284
rhand -32.2607 -39.0954
rfingers 7.12502
rthumb -5.50043 -69.004
lclavicle 5.46658e-016 3.77691e-015
lhumerus -29.1696 3.03957 80.7072
lradius 44.2533
lwrist -12.4705
lhand -40.7974 -40.1692
lfingers 7.12502
lthumb -13.7364 -10.6426
rfemur -19.1268 9.11945 12.049
rtibia 41.9753
rfoot -30.4292 -22.9046
rtoes -3.73484
lfemur -18.4426 -2.66836 -8.03216
ltibia 41.3068
lfoot -33.4734 22.6349
ltoes -29.1085
132
root 17.2618 15.997 0.408136 -224.804 -88.0751 228.787
lowerback -9.43929 -0.218845 0.944531
upperback 2.07816 -0.413948 0.0781055
thorax 7.49107 -0.16205 -0.514882
lowerneck -4.28407 0.967607 -3.54023
upperneck 12.3228 1.36785 0.86145
head 4.84533 0.48809 0.997689
rclavicle -3.78933e-015 1.98785e-015
rhumerus -29.0408 3.90016 -86.2664
rradius 43.0151
rwrist 4.88747
rhand -32.39 -39.0265
rfingers 7.12502
rthumb -5.62527 -68.9318
lclavicle -3.78933e-015 1.98785e-015
lhumerus -29.1978 2.99965 80.6981
lradius 44.2733
lwrist -12.4241
lhand -40.744 -40.1404
lfingers 7.12502
lthumb -13.6849 -10.6104
rfemur -19.1338 9.11482 12.0344
rtibia 41.9811
rfoot -30.391 -22.8876
rtoes -3.83373
lfemur -18.4205 -2.69225 -8.04881
ltibia 41.2996
lfoot -33.5076 22.6207
ltoes -28.9332
133
root 17.2619 15.997 0.408701 -223.573 -88.065 227.553
lowerback -9.44854 -0.21441 0.915242
upperback 2.07504 -0.404313 0.0755095
thorax 7.49335 -0.158576 -0.499652
lowerneck -4.27558 0.974738 -3.50856
upperneck 12.3538 1.37485 0.849336
head 4.85505 0.491523 0.988398
rclavicle 4.39811e-015 -3.18055e-015
rhumerus -29.0042 3.91856 -86.2709
rradius 42.9987
rwrist 4.76325
rhand -32.4789 -38.9095
rfingers 7.12502
rthumb -5.71115 -68.8126
lclavicle 4.39811e-015 -3.18055e-015
lhumerus -29.2153 2.94656 80.6909
lradius 44.2849
lwrist -12.3742
lhand -40.6632 -40.1082
lfingers 7.12502
lthumb -13.607 -10.5729
rfemur -19.1457 9.08904 12.0052
rtibia 41.9889
rfoot -30.3442 -22.8529
rtoes -3.90991
lfemur -18.3949 -2.71702 -8.07835
ltibia 41.2884
lfoot -33.5516 22.6188
ltoes -28.8051
134
root 17.2622 15.9972 0.409287 -222.245 -88.0582 226.226
lowerback -9.46839 -0.210515 0.878288
upperback 2.0741 -0.394499 0.0718152
thorax 7.50411 -0.155275 -0.481303
lowerneck -4.26964 0.980546 -3.47485
upperneck 12.3793 1.37916 0.845905
head 4.86323 0.494372 0.981558
rclavicle -1.37907e-015 -1.98785e-016
rhumerus -28.953 3.93365 -86.2724
rradius 42.9718
rwrist 4.67004
rhand -32.5327 -38.7653
rfingers 7.12502
rthumb -5.76309 -68.667
lclavicle -1.37907e-015 -1.98785e-016
lhumerus -29.2209 2.87929 80.6842
lradius 44.2898
lwrist -12.3163
lhand -40.5638 -40.0958
lfingers 7.12502
lthumb -13.5112 -10.5542
rfemur -19.1639 9.06178 11.968
rtibia 41.9975
rfoot -30.3147 -22.8052
rtoes -3.89749
lfemur -18.3725 -2.73695 -8.11427
ltibia 41.274
lfoot -33.595 22.6445
ltoes -28.768
135
root 17.2626 15.9976 0.409962 -220.709 -88.053 224.696
lowerback -9.49627 -0.206973 0.833785
upperback 2.0727 -0.384221 0.0672456
thorax 7.51903 -0.152046 -0.45959
lowerneck -4.26523 0.985725 -3.4411
upperneck 12.4 1.38226 0.847291
head 4.86998 0.497022 0.976275
rclavicle 1.54058e-015 -1.88845e-015
rhumerus -28.8959 3.94931 -86.2713
rradius 42.9381
rwrist 4.60823
rhand -32.5642 -38.6017
rfingers 7.12502
rthumb -5.79351 -68.5025
lclavicle 1.54058e-015 -1.88845e-015
lhumerus -29.2229 2.8054 80.6796
lradius 44.2908
lwrist -12.2527
lhand -40.4756 -40.1163
lfingers 7.12502
lthumb -13.4262 -10.569
rfemur -19.1914 9.02663 11.919
rtibia 42.0069
rfoot -30.3092 -22.7283
rtoes -3.78417
lfemur -18.3555 -2.75085 -8.15884
ltibia 41.2558
lfoot -33.6334 22.7062
ltoes -28.8302
